<mxfile host="app.diagrams.net" agent="Mozilla/5.0 (Windows NT 10.0; Win64; x64) AppleWebKit/537.36 (KHTML, like Gecko) Chrome/131.0.0.0 Safari/537.36" version="25.0.3">
  <diagram name="PÃ¡gina-1" id="enXfsduxzIJ1R6LtTabG">
    <mxGraphModel dx="1488" dy="1278" grid="1" gridSize="10" guides="1" tooltips="1" connect="1" arrows="1" fold="1" page="1" pageScale="1" pageWidth="827" pageHeight="1169" math="0" shadow="0">
      <root>
        <mxCell id="0" />
        <mxCell id="1" parent="0" />
        <mxCell id="sUjVDAO8mVzvyYbVlsG6-3" value="" style="shape=process;whiteSpace=wrap;html=1;backgroundOutline=1;size=0.019999999999999997;" vertex="1" parent="1">
          <mxGeometry x="560" y="1750" width="500" height="280" as="geometry" />
        </mxCell>
        <mxCell id="sUjVDAO8mVzvyYbVlsG6-4" value="" style="rounded=0;whiteSpace=wrap;html=1;" vertex="1" parent="1">
          <mxGeometry x="1530" y="1750" width="160" height="280" as="geometry" />
        </mxCell>
        <mxCell id="sUjVDAO8mVzvyYbVlsG6-5" value="" style="shape=cube;whiteSpace=wrap;html=1;boundedLbl=1;backgroundOutline=1;darkOpacity=0.05;darkOpacity2=0.1;" vertex="1" parent="1">
          <mxGeometry x="460" y="1690" width="1340" height="80" as="geometry" />
        </mxCell>
        <mxCell id="sUjVDAO8mVzvyYbVlsG6-6" value="" style="shape=cube;whiteSpace=wrap;html=1;boundedLbl=1;backgroundOutline=1;darkOpacity=0.05;darkOpacity2=0.1;size=280;" vertex="1" parent="1">
          <mxGeometry x="50" y="880" width="1320" height="660" as="geometry" />
        </mxCell>
        <mxCell id="sUjVDAO8mVzvyYbVlsG6-7" value="" style="shape=parallelogram;perimeter=parallelogramPerimeter;whiteSpace=wrap;html=1;fixedSize=1;rotation=-178;size=64.11000000000013;direction=south;" vertex="1" parent="1">
          <mxGeometry x="563.725" y="796.555" width="79.95" height="195.62" as="geometry" />
        </mxCell>
      </root>
    </mxGraphModel>
  </diagram>
</mxfile>
